<?xml version="1.0" standalone="no"?>
<!DOCTYPE svg PUBLIC "-//W3C//DTD SVG 20010904//EN"
 "http://www.w3.org/TR/2001/REC-SVG-20010904/DTD/svg10.dtd">
<svg version="1.0" xmlns="http://www.w3.org/2000/svg"
 width="1024.000000pt" height="1024.000000pt" viewBox="0 0 1024.000000 1024.000000"
 preserveAspectRatio="xMidYMid meet">

<g transform="translate(0.000000,1024.000000) scale(0.100000,-0.100000)"
fill="#000000" stroke="none">
<path d="M4915 8563 c-73 -4 -280 -24 -283 -27 -3 -4 116 -204 140 -235 25
-33 23 -67 -7 -96 -52 -53 -91 -23 -220 172 -58 89 -86 122 -101 122 -30 1
-252 -61 -364 -102 -615 -224 -1142 -655 -1474 -1206 -266 -439 -399 -889
-413 -1397 -10 -349 25 -619 119 -929 191 -628 602 -1186 1143 -1554 813 -552
1832 -672 2725 -319 344 136 690 356 950 603 499 474 790 1046 892 1750 20
138 17 579 -5 735 -151 1075 -890 1982 -1896 2324 -127 43 -348 103 -354 95
-2 -2 -50 -71 -107 -152 -58 -84 -114 -154 -127 -160 -32 -14 -73 7 -86 46 -8
24 -1 40 48 125 32 53 68 114 81 134 13 20 20 39 16 41 -9 6 -190 24 -308 32
l-91 5 -2 -127 c-1 -106 -5 -132 -20 -153 -24 -33 -78 -39 -111 -12 -22 18
-24 29 -31 148 -4 71 -5 132 -2 137 4 7 -6 7 -112 0z m534 -574 c35 -12 61
-53 61 -94 0 -26 -137 -1088 -164 -1267 l-13 -88 538 -2 537 -3 39 -31 c21
-17 46 -51 57 -76 33 -80 22 -108 -135 -352 -77 -120 -254 -396 -393 -615
-139 -218 -383 -598 -543 -846 -159 -247 -367 -571 -462 -720 -95 -148 -183
-281 -195 -293 -62 -69 -171 -98 -251 -68 -54 21 -117 89 -141 153 -17 45 -17
49 9 177 131 657 288 1431 293 1451 l6 25 -441 0 c-348 0 -448 3 -474 14 -43
17 -93 76 -108 125 -20 68 -5 115 85 266 45 77 238 401 428 720 350 588 514
865 731 1235 149 255 148 253 199 279 37 18 61 21 174 21 72 0 145 -5 163 -11z
m-1643 -250 c81 -30 164 -114 194 -194 18 -49 21 -75 18 -141 -7 -138 -72
-235 -195 -291 -48 -22 -65 -25 -137 -21 -96 5 -151 27 -215 89 -92 89 -126
242 -80 364 63 168 250 255 415 194z m946 -34 c15 -34 0 -49 -67 -64 -62 -14
-91 -9 -100 19 -10 30 12 58 48 63 88 11 107 8 119 -18z m928 -5 c24 -24 26
-53 3 -75 -30 -31 -113 3 -113 46 0 47 73 66 110 29z m-1200 -35 c21 -25 4
-62 -35 -75 -59 -19 -100 20 -70 66 12 18 25 24 54 24 22 0 44 -6 51 -15z
m1433 -29 c61 -27 71 -37 62 -66 -9 -29 -45 -34 -100 -12 -63 25 -81 49 -59
80 19 28 31 28 97 -2z m-1633 -30 c18 -23 8 -59 -21 -73 -49 -23 -84 -26 -102
-8 -30 29 -21 54 26 75 50 23 80 25 97 6z m1890 -71 c58 -29 71 -58 41 -89
l-21 -21 -53 29 c-28 16 -58 33 -64 39 -28 21 -7 67 29 67 10 0 41 -11 68 -25z
m238 -145 c54 -31 67 -61 40 -88 -19 -19 -40 -14 -91 18 -48 31 -61 62 -35 88
17 17 27 15 86 -18z m292 -113 c0 -2 -10 -12 -22 -23 l-23 -19 19 23 c18 21
26 27 26 19z m391 -24 c13 -16 12 -17 -3 -4 -10 7 -18 15 -18 17 0 8 8 3 21
-13z m-3673 -195 c21 -21 13 -43 -36 -98 l-49 -54 -26 17 c-15 10 -27 24 -27
31 0 7 18 36 41 65 41 52 72 64 97 39z m3749 -60 c-3 -8 -6 -5 -6 6 -1 11 2
17 5 13 3 -3 4 -12 1 -19z m-570 -10 c-3 -8 -6 -5 -6 6 -1 11 2 17 5 13 3 -3
4 -12 1 -19z m555 -60 c-8 -8 -9 -4 -5 13 4 13 8 18 11 10 2 -7 -1 -18 -6 -23z
m-522 -33 c0 -5 -5 -3 -10 5 -5 8 -10 20 -10 25 0 6 5 3 10 -5 5 -8 10 -19 10
-25z m-3386 -71 c22 -21 21 -23 -23 -91 -44 -69 -54 -77 -81 -68 -33 10 -34
42 -5 88 56 86 79 101 109 71z m-146 -236 c17 -17 15 -34 -14 -99 -28 -63 -48
-73 -79 -43 -20 20 -14 51 21 112 25 42 49 53 72 30z m4609 -180 c-3 -8 -6 -5
-6 6 -1 11 2 17 5 13 3 -3 4 -12 1 -19z m-70 -20 c-3 -7 -5 -2 -5 12 0 14 2
19 5 13 2 -7 2 -19 0 -25z m-3705 -45 c38 -34 24 -48 -139 -139 -87 -48 -165
-91 -173 -95 -169 -88 -492 -303 -619 -411 -136 -117 -284 -312 -333 -440 -28
-74 -27 -193 3 -273 31 -84 133 -183 254 -248 50 -26 78 -45 63 -41 -25 6 -28
3 -28 -20 0 -14 -5 -26 -11 -26 -6 0 -8 7 -5 16 5 13 2 15 -13 11 -11 -3 -22
0 -25 7 -2 6 -5 3 -5 -8 -1 -12 4 -16 14 -12 8 3 15 0 15 -7 0 -7 16 -19 36
-26 19 -7 33 -15 30 -18 -9 -9 -156 65 -222 112 -121 87 -194 199 -214 329
-27 173 43 339 237 567 171 201 446 390 1013 697 85 46 96 48 122 25z m3778
-80 c-11 -17 -11 -17 -6 0 3 10 7 37 8 60 l1 42 4 -42 c2 -24 -1 -51 -7 -60z
m-63 40 c-3 -10 -5 -4 -5 12 0 17 2 24 5 18 2 -7 2 -21 0 -30z m-4659 11 c9
-17 1 -79 -17 -127 -9 -24 -16 -28 -43 -25 -32 3 -33 5 -32 45 1 62 31 123 60
123 13 0 27 -7 32 -16z m4649 -81 c-3 -10 -5 -4 -5 12 0 17 2 24 5 18 2 -7 2
-21 0 -30z m-326 -46 c-10 -9 -11 -8 -5 6 3 10 9 15 12 12 3 -3 0 -11 -7 -18z
m309 -14 c-11 -17 -11 -17 -6 0 3 10 6 24 7 30 0 9 2 9 5 0 3 -7 0 -20 -6 -30z
m57 15 c-3 -8 -6 -5 -6 6 -1 11 2 17 5 13 3 -3 4 -12 1 -19z m16 -37 c-4 -15
-8 -19 -13 -10 -5 6 -3 18 3 24 16 17 17 14 10 -14z m-103 -63 c-32 -65 -69
-122 -135 -210 -28 -38 -32 -48 -18 -48 15 0 15 -1 -1 -13 -15 -11 -16 -15 -5
-19 25 -10 34 -8 34 5 1 6 7 11 14 9 7 -1 15 7 18 18 3 11 10 20 15 20 6 0 7
11 4 24 -4 16 -1 26 9 30 9 3 12 12 9 23 -5 17 -5 17 9 0 10 -12 17 -15 22 -7
4 6 -1 18 -11 26 -18 14 -18 15 2 5 18 -9 25 -7 37 12 32 49 57 108 51 119 -4
6 -3 8 4 4 6 -3 14 3 17 15 4 11 9 18 11 16 9 -9 -44 -113 -103 -202 -68 -104
-170 -218 -186 -208 -5 3 -7 1 -4 -4 17 -27 -298 -279 -523 -420 -107 -68
-250 -147 -250 -140 0 3 25 19 55 36 34 19 53 36 49 43 -4 6 -3 8 4 4 6 -3 22
-1 35 5 22 10 24 15 17 40 -5 17 -5 27 0 24 5 -3 14 4 20 15 13 25 10 25 -37
-2 -69 -39 -28 -9 112 83 77 50 164 110 195 134 37 28 63 41 80 39 14 -1 28
-3 33 -3 4 -1 6 -4 5 -8 -2 -5 1 -8 7 -8 5 0 9 6 7 13 -3 10 17 17 41 13 4 -1
10 6 13 14 3 8 11 12 17 8 6 -3 7 -1 3 6 -4 6 -12 9 -17 6 -12 -8 -11 -2 4 29
8 14 16 23 19 21 3 -3 10 6 16 20 7 15 8 25 2 25 -6 0 -10 -7 -10 -16 0 -8 -4
-13 -8 -10 -5 3 -16 -4 -25 -15 -9 -10 -12 -19 -6 -19 5 0 7 -5 3 -11 -5 -8
-9 -8 -14 1 -6 10 -14 7 -30 -8 l-23 -21 28 2 c16 1 29 -3 31 -11 1 -7 0 -8
-3 -2 -2 5 -11 10 -19 10 -9 0 -13 -4 -10 -9 4 -5 -4 -7 -16 -3 -13 3 -19 1
-15 -5 4 -6 -4 -10 -20 -10 -25 0 -23 3 32 50 182 154 355 362 402 485 9 25
19 40 21 34 2 -6 -6 -30 -18 -54z m-4670 -43 c15 -18 5 -125 -14 -151 -15 -20
-60 -13 -69 10 -9 23 11 138 25 147 20 13 44 11 58 -6z m4695 5 c-3 -5 -12
-10 -18 -10 -7 0 -6 4 3 10 19 12 23 12 15 0z m-40 -50 c3 -5 1 -10 -4 -10 -6
0 -11 5 -11 10 0 6 2 10 4 10 3 0 8 -4 11 -10z m-186 -539 c11 -7 12 -23 7
-72 -9 -74 -20 -99 -45 -99 -36 0 -45 25 -33 93 14 73 38 99 71 78z m-4522
-123 c-3 -8 -6 -5 -6 6 -1 11 2 17 5 13 3 -3 4 -12 1 -19z m17 -34 c3 -8 2
-12 -4 -9 -6 3 -10 10 -10 16 0 14 7 11 14 -7z m3812 -29 c-11 -8 -24 -15 -29
-15 -4 0 -5 -4 -2 -10 3 -5 -1 -10 -10 -10 -9 0 -35 -9 -58 -21 -56 -28 -35
-8 28 26 28 15 54 31 60 36 5 5 14 9 20 9 5 0 1 -7 -9 -15z m-151 -85 c-3 -5
-12 -10 -18 -10 -7 0 -6 4 3 10 19 12 23 12 15 0z m776 -16 c25 -31 -22 -154
-60 -154 -39 0 -44 24 -21 99 18 62 24 71 44 71 13 0 29 -7 37 -16z m-816 -4
c-3 -5 -12 -10 -18 -10 -7 0 -6 4 3 10 19 12 23 12 15 0z m-3489 -55 c18 -44
18 -79 -1 -95 -35 -29 -75 13 -75 81 0 42 5 49 37 49 18 0 28 -9 39 -35z
m3574 14 c-28 -19 -172 -90 -176 -87 -4 4 167 96 181 97 6 0 3 -4 -5 -10z
m-220 -109 c-8 -5 -19 -10 -25 -10 -5 0 -3 5 5 10 8 5 20 10 25 10 6 0 3 -5
-5 -10z m868 -92 c2 -9 -4 -32 -12 -52 -18 -43 -48 -48 -72 -11 -15 23 -15 26
6 55 17 24 29 30 48 28 15 -2 28 -10 30 -20z m-4146 -15 c32 -36 49 -82 39
-102 -19 -35 -44 -35 -73 -1 -36 44 -42 80 -16 103 11 9 24 17 28 17 4 0 14
-8 22 -17z m3842 -53 c58 -18 66 -24 66 -45 0 -18 4 -23 16 -18 22 8 79 -50
103 -108 38 -87 26 -215 -27 -294 -104 -152 -318 -179 -454 -57 -123 111 -141
282 -43 414 43 59 93 93 165 112 75 20 97 19 174 -4z m-3371 -124 c45 -18 95
-72 123 -131 78 -165 -42 -360 -221 -359 -218 0 -333 248 -193 418 62 75 202
110 291 72z m2998 -546 c30 -16 23 -45 -18 -78 -57 -44 -75 -52 -95 -41 -35
19 -22 56 34 94 60 40 54 38 79 25z m-2787 -37 c47 -39 56 -59 34 -81 -19 -19
-36 -15 -83 19 -50 36 -59 52 -45 80 16 28 42 23 94 -18z m235 -159 c36 -30
38 -44 12 -68 -22 -20 -38 -15 -98 31 -37 27 -44 66 -16 82 20 11 53 -4 102
-45z m2349 10 c2 -14 -12 -27 -48 -47 -62 -35 -94 -33 -98 5 -3 23 4 31 50 57
46 27 55 29 73 17 11 -7 21 -22 23 -32z m-2151 -119 c45 -27 55 -53 27 -76
-12 -10 -22 -10 -52 0 -76 27 -101 58 -70 89 18 18 47 14 95 -13z m1912 3 c12
-32 -7 -51 -74 -74 -50 -17 -56 -17 -71 -2 -25 25 -9 53 44 76 64 28 91 27
101 0z m-261 -87 c8 -4 12 -19 10 -32 -2 -20 -15 -28 -75 -48 -77 -25 -103
-20 -103 19 0 24 21 40 77 55 59 16 74 17 91 6z m-283 -102 c9 -28 -9 -45 -67
-60 -51 -14 -78 -3 -78 31 0 31 32 47 102 49 29 1 38 -3 43 -20z m-261 -31 c8
-14 7 -22 -7 -35 -15 -15 -35 -18 -134 -16 -129 1 -155 12 -133 52 10 21 17
21 137 19 107 -3 128 -6 137 -20z"/>
<path d="M5242 7230 c0 -14 2 -19 5 -12 2 6 2 18 0 25 -3 6 -5 1 -5 -13z"/>
<path d="M5232 7155 c0 -16 2 -22 5 -12 2 9 2 23 0 30 -3 6 -5 -1 -5 -18z"/>
<path d="M5222 7085 c0 -16 2 -22 5 -12 2 9 2 23 0 30 -3 6 -5 -1 -5 -18z"/>
<path d="M5212 7020 c0 -19 2 -27 5 -17 2 9 2 25 0 35 -3 9 -5 1 -5 -18z"/>
<path d="M5202 6940 c0 -19 2 -27 5 -17 2 9 2 25 0 35 -3 9 -5 1 -5 -18z"/>
<path d="M5192 6860 c0 -19 2 -27 5 -17 2 9 2 25 0 35 -3 9 -5 1 -5 -18z"/>
<path d="M5175 6765 c-3 -31 -5 -59 -2 -61 3 -3 8 20 12 51 3 31 5 59 2 61 -3
3 -8 -20 -12 -51z"/>
<path d="M5161 6665 c-1 -16 -10 -88 -20 -160 -14 -91 -16 -134 -9 -142 8 -10
99 -13 396 -13 212 0 383 -3 379 -6 -3 -3 -42 -6 -86 -5 -59 1 -81 -2 -81 -11
0 -9 -3 -9 -8 -2 -9 13 -182 19 -182 5 0 -5 6 -12 13 -14 9 -4 9 -6 -1 -6 -7
-1 -15 5 -18 13 -3 8 -22 14 -50 14 -32 1 -43 -2 -38 -11 5 -9 3 -9 -7 1 -18
17 -70 15 -97 -3 -16 -12 -20 -13 -17 -3 4 9 -3 14 -17 15 -13 0 -17 -1 -10
-4 6 -3 12 -9 12 -14 0 -6 -4 -8 -9 -4 -5 3 -12 1 -16 -5 -3 -5 -17 -7 -31 -4
-16 4 -24 2 -24 -7 0 -8 -6 -5 -16 7 -8 10 -12 13 -8 5 4 -9 2 -12 -7 -9 -8 3
-13 12 -11 19 2 10 -1 10 -10 -2 -7 -9 -18 -14 -24 -12 -7 2 -24 -17 -38 -43
-21 -37 -24 -49 -14 -57 9 -6 8 -7 -4 -3 -12 3 -25 -9 -47 -45 -17 -27 -31
-54 -31 -59 0 -6 -5 -10 -11 -10 -6 0 -8 -7 -5 -16 3 -8 2 -12 -4 -9 -5 3 -21
-16 -36 -42 -30 -52 -70 -118 -153 -252 -76 -123 -111 -183 -118 -203 -3 -10
-10 -18 -15 -18 -5 0 -6 -4 -3 -10 4 -7 -79 -10 -243 -10 -137 0 -323 -3 -414
-7 -145 -5 -165 -4 -171 10 -6 15 11 52 71 157 14 25 21 41 15 35 -6 -5 -32
-47 -58 -92 -34 -59 -45 -87 -40 -103 l7 -22 524 8 c445 6 524 5 524 -7 0 -8
-23 -122 -51 -254 -164 -779 -308 -1518 -299 -1535 14 -26 46 -34 78 -21 21 9
116 149 392 579 456 711 1297 2027 1311 2054 8 16 8 23 -2 29 -8 5 -278 8
-604 8 -573 -2 -590 -1 -588 17 0 10 9 78 18 151 10 72 15 137 12 145 -3 7 -6
0 -6 -17z m269 -339 c0 -2 -7 -9 -15 -16 -13 -11 -14 -10 -9 4 5 14 24 23 24
12z m111 -48 c-10 -11 -12 -10 -9 1 2 8 -8 20 -20 27 -16 8 -20 13 -10 17 7 2
22 -4 33 -14 16 -15 17 -21 6 -31z m129 32 c0 -5 -5 -10 -11 -10 -5 0 -7 5 -4
10 3 6 8 10 11 10 2 0 4 -4 4 -10z m95 -18 c-3 -3 -11 0 -18 7 -9 10 -8 11 6
5 10 -3 15 -9 12 -12z m-438 2 c-3 -3 -12 -4 -19 -1 -8 3 -5 6 6 6 11 1 17 -2
13 -5z m113 2 c0 -3 -4 -8 -10 -11 -5 -3 -10 -1 -10 4 0 6 5 11 10 11 6 0 10
-2 10 -4z m-251 -15 c11 -7 9 -10 -8 -16 -24 -7 -44 2 -36 16 8 11 26 11 44 0z
m479 -16 c-3 -3 -9 2 -12 12 -6 14 -5 15 5 6 7 -7 10 -15 7 -18z m-519 -48 c1
-4 -5 -2 -13 5 -7 7 -11 19 -8 27 4 11 7 10 13 -5 4 -10 8 -23 8 -27z m56 21
c4 -3 2 -9 -3 -12 -5 -3 -15 1 -21 8 -10 11 -9 14 3 12 9 -1 18 -5 21 -8z
m536 -21 c-10 -9 -11 -8 -5 6 3 10 9 15 12 12 3 -3 0 -11 -7 -18z m-66 3 c3
-6 -1 -7 -9 -4 -18 7 -21 14 -7 14 6 0 13 -4 16 -10z m-568 -696 c-3 -3 -12
-4 -19 -1 -8 3 -5 6 6 6 11 1 17 -2 13 -5z"/>
<path d="M4440 6570 c-6 -11 -8 -20 -6 -20 3 0 10 9 16 20 6 11 8 20 6 20 -3
0 -10 -9 -16 -20z"/>
<path d="M4380 6470 c-6 -11 -8 -20 -6 -20 3 0 10 9 16 20 6 11 8 20 6 20 -3
0 -10 -9 -16 -20z"/>
<path d="M4336 6393 c-6 -14 -5 -15 5 -6 7 7 10 15 7 18 -3 3 -9 -2 -12 -12z"/>
<path d="M4285 6310 c-9 -16 -13 -30 -11 -30 3 0 12 14 21 30 9 17 13 30 11
30 -3 0 -12 -13 -21 -30z"/>
<path d="M5266 6326 c3 -9 11 -16 16 -16 13 0 5 23 -10 28 -7 2 -10 -2 -6 -12z"/>
<path d="M4250 6250 c-6 -11 -8 -20 -6 -20 3 0 10 9 16 20 6 11 8 20 6 20 -3
0 -10 -9 -16 -20z"/>
<path d="M4160 6098 c-87 -147 -82 -138 -77 -138 2 0 37 55 77 123 87 146 82
137 77 137 -2 0 -37 -55 -77 -122z"/>
<path d="M4015 5853 c-71 -121 -67 -113 -61 -113 4 0 78 122 123 203 2 4 2 7
0 7 -3 0 -30 -44 -62 -97z"/>
<path d="M4456 5633 c-6 -14 -5 -15 5 -6 7 7 10 15 7 18 -3 3 -9 -2 -12 -12z"/>
<path d="M4495 5620 c-3 -5 -1 -10 4 -10 6 0 11 5 11 10 0 6 -2 10 -4 10 -3 0
-8 -4 -11 -10z"/>
<path d="M4570 5611 c0 -6 4 -13 10 -16 6 -3 7 1 4 9 -7 18 -14 21 -14 7z"/>
<path d="M4343 5597 c0 -7 9 -13 19 -13 10 0 18 1 18 3 0 1 -8 7 -18 12 -13 7
-19 6 -19 -2z"/>
<path d="M4463 5595 c0 -8 4 -12 9 -9 5 3 6 10 3 15 -9 13 -12 11 -12 -6z"/>
<path d="M4616 5555 c-3 -8 -1 -15 4 -15 6 0 10 7 10 15 0 8 -2 15 -4 15 -2 0
-6 -7 -10 -15z"/>
<path d="M4525 5550 c-3 -5 -1 -10 4 -10 6 0 11 5 11 10 0 6 -2 10 -4 10 -3 0
-8 -4 -11 -10z"/>
<path d="M3875 6337 c-39 -23 -68 -47 -57 -47 6 0 14 5 17 10 3 6 15 10 26 10
13 0 18 -4 13 -12 -4 -7 -3 -8 5 -4 6 4 10 15 9 23 -2 9 3 18 10 20 10 4 10
-3 -2 -31 -14 -34 -14 -35 4 -24 11 7 18 23 18 40 -1 30 -11 34 -43 15z"/>
<path d="M3925 6320 c3 -5 8 -10 11 -10 2 0 4 5 4 10 0 6 -5 10 -11 10 -5 0
-7 -4 -4 -10z"/>
<path d="M2890 4720 c-9 -6 -10 -10 -3 -10 6 0 15 5 18 10 8 12 4 12 -15 0z"/>
<path d="M2927 4714 c5 -13 3 -15 -8 -9 -11 6 -11 5 -2 -5 8 -8 16 -9 29 -2
16 9 16 10 -4 21 -19 10 -21 9 -15 -5z"/>
<path d="M7363 5767 c-15 -16 -19 -28 -12 -38 7 -11 11 -11 17 -1 5 7 16 10
24 7 21 -8 62 35 48 49 -7 7 -14 6 -22 -2 -15 -15 -32 -16 -23 -2 12 19 -10
10 -32 -13z m42 -17 c3 -6 -1 -7 -9 -4 -18 7 -21 14 -7 14 6 0 13 -4 16 -10z"/>
<path d="M7297 5661 c-4 -17 -3 -21 5 -13 5 5 8 16 6 23 -3 8 -7 3 -11 -10z"/>
<path d="M7275 5620 c-3 -5 -2 -10 4 -10 5 0 13 5 16 10 3 6 2 10 -4 10 -5 0
-13 -4 -16 -10z"/>
<path d="M7110 5540 c0 -6 4 -10 9 -10 14 0 8 -34 -9 -48 -13 -11 -11 -11 7
-2 15 7 20 16 16 26 -5 13 -2 15 15 10 25 -8 38 9 14 19 -29 13 -52 15 -52 5z"/>
<path d="M7087 5515 c3 -8 9 -12 14 -9 12 7 11 11 -5 17 -10 4 -13 1 -9 -8z"/>
<path d="M7060 5492 c0 -15 4 -20 16 -15 9 3 12 9 7 12 -4 3 -11 10 -15 15 -5
5 -8 0 -8 -12z"/>
<path d="M6983 5456 c-35 -23 -65 -49 -69 -59 -3 -9 -10 -14 -16 -11 -5 4 -22
-2 -36 -13 -15 -11 -36 -23 -46 -26 -10 -4 -16 -10 -13 -14 4 -3 2 -14 -4 -24
-6 -13 -6 -19 1 -19 5 0 10 -4 10 -10 0 -5 -7 -7 -15 -4 -9 4 -15 0 -15 -10 0
-23 11 -20 53 15 24 20 36 37 33 46 -7 18 17 54 29 45 15 -11 17 -33 2 -30
-13 3 -17 -3 -17 -22 0 -7 7 -7 21 0 11 7 18 18 15 25 -3 8 -1 17 5 20 5 4 6
11 3 17 -4 6 -1 9 7 6 8 -3 13 -12 13 -21 -1 -14 1 -14 22 1 13 9 24 24 24 32
0 12 2 12 9 2 6 -10 10 -10 21 3 7 8 9 16 4 16 -5 1 -15 2 -23 3 -8 0 -16 6
-18 13 -3 8 4 10 21 7 20 -3 26 0 26 13 0 15 2 15 9 3 6 -8 7 -18 5 -22 -8
-13 10 -8 31 8 19 15 19 15 1 12 -13 -2 -22 4 -25 18 -6 20 -9 19 -68 -20z
m-13 -60 c-14 -14 -32 3 -17 18 9 10 14 11 19 2 4 -6 3 -15 -2 -20z m-123 -93
c-21 -21 -27 -15 -16 16 7 19 12 22 21 13 9 -9 8 -16 -5 -29z"/>
<path d="M7368 5443 c7 -3 16 -2 19 1 4 3 -2 6 -13 5 -11 0 -14 -3 -6 -6z"/>
<path d="M7331 5364 c0 -11 3 -14 6 -6 3 7 2 16 -1 19 -3 4 -6 -2 -5 -13z"/>
<path d="M7177 4925 c-4 -8 -1 -17 6 -21 7 -4 9 -4 5 1 -4 4 -3 14 3 22 7 8 8
13 1 13 -5 0 -12 -7 -15 -15z"/>
<path d="M7216 4927 c3 -10 9 -15 12 -12 3 3 0 11 -7 18 -10 9 -11 8 -5 -6z"/>
<path d="M7161 4884 c0 -11 3 -14 6 -6 3 7 2 16 -1 19 -3 4 -6 -2 -5 -13z"/>
<path d="M6810 4862 c-13 -2 -30 -11 -38 -20 -13 -16 -13 -16 -8 0 3 11 1 15
-8 12 -7 -3 -13 -11 -13 -19 0 -8 3 -13 5 -10 3 3 11 0 18 -6 11 -9 11 -13 -1
-25 -18 -18 -29 -18 -21 1 3 8 1 15 -4 15 -6 0 -10 8 -10 18 0 14 -2 15 -10 2
-6 -10 -6 -16 0 -18 15 -6 12 -23 -7 -38 -14 -11 -15 -13 -3 -14 10 0 7 -5 -8
-16 -20 -14 -24 -14 -38 0 -22 22 -41 20 -21 -2 22 -24 21 -31 0 -30 -10 0
-26 -3 -37 -7 -14 -6 -17 -5 -14 6 3 8 12 13 22 11 18 -3 20 6 7 26 -9 15 -18
6 -41 -37 -9 -18 -9 -22 0 -16 8 5 11 3 8 -6 -3 -8 -10 -13 -16 -12 -6 2 -14
-14 -18 -34 -5 -27 -3 -39 9 -48 13 -9 14 -14 4 -24 -9 -10 -8 -11 6 -6 9 4
17 15 18 24 0 9 5 4 11 -12 6 -16 14 -24 21 -20 7 3 4 -3 -5 -14 -10 -11 -18
-24 -18 -30 0 -6 -7 -13 -15 -17 -19 -7 -19 4 0 31 11 16 12 24 4 29 -7 4 -9
3 -6 -3 4 -6 0 -16 -8 -23 -13 -11 -14 -10 -9 5 5 13 4 16 -4 11 -15 -9 -15
-31 -1 -58 8 -15 13 -17 19 -8 4 7 13 9 19 6 6 -4 9 -12 6 -17 -6 -8 8 -13 30
-10 6 1 2 -5 -8 -13 -12 -10 -15 -16 -7 -21 6 -4 9 -14 5 -23 -3 -9 -3 -13 1
-9 4 4 13 2 20 -4 8 -6 14 -7 18 0 4 6 -3 15 -14 21 -11 6 -18 15 -14 21 4 6
11 6 20 -2 17 -14 24 2 20 46 -4 44 -5 45 -21 45 -17 0 -20 -17 -5 -22 6 -2
13 -18 15 -36 2 -19 0 -30 -5 -27 -6 4 -10 13 -10 21 0 8 -7 14 -16 14 -11 0
-14 5 -10 16 4 9 1 23 -5 30 -12 14 -7 17 32 17 11 0 14 7 11 24 -5 29 -21 40
-33 22 -6 -10 -10 -9 -15 6 -4 11 -19 30 -32 41 -16 14 -20 24 -13 28 6 4 11
2 11 -4 0 -7 7 -10 14 -7 10 4 13 1 9 -9 -4 -10 2 -14 21 -14 14 0 26 5 26 12
0 8 6 6 17 -5 9 -9 13 -20 9 -24 -5 -5 -11 -3 -13 4 -2 7 -10 10 -17 7 -9 -4
-4 -14 15 -36 22 -22 27 -36 23 -54 -5 -20 -2 -24 15 -24 11 0 19 -6 17 -12
-1 -7 -1 -9 2 -5 2 4 11 0 20 -10 10 -10 26 -19 37 -20 19 -3 19 -3 1 10 -10
6 -31 22 -46 34 -15 12 -30 20 -33 16 -4 -3 -5 9 -2 27 5 41 9 44 26 23 9 -11
10 -14 2 -9 -7 4 -13 2 -13 -3 0 -6 5 -11 10 -11 6 0 10 -5 10 -11 0 -20 30
-43 42 -31 14 14 1 33 -17 25 -21 -7 -19 3 5 27 21 21 35 27 25 10 -3 -5 -1
-10 4 -10 6 0 11 5 11 10 0 6 7 10 15 10 8 0 15 5 15 12 0 6 3 8 7 4 5 -4 -1
-14 -11 -22 -11 -8 -14 -14 -8 -14 20 0 13 -31 -7 -37 -29 -7 -32 -28 -10 -52
25 -26 34 -26 61 1 16 16 17 20 5 15 -19 -7 -21 1 -7 23 8 13 11 12 24 -5 9
-11 16 -31 17 -45 1 -23 2 -23 8 4 3 16 13 32 21 34 12 4 13 3 2 -10 -18 -22
-6 -47 19 -41 15 4 17 8 8 14 -7 4 -17 5 -22 2 -5 -3 -8 0 -5 8 6 17 30 19 41
4 5 -5 5 1 1 15 -5 14 -8 34 -9 46 0 16 -5 20 -19 16 -16 -4 -18 -1 -13 14 7
18 7 18 -8 0 -11 -15 -12 -22 -3 -27 7 -4 16 -5 20 -3 4 3 8 1 8 -5 0 -17 -14
-20 -32 -7 -9 7 -15 19 -14 27 6 29 18 49 27 43 5 -3 14 7 21 21 8 18 14 22
20 13 6 -10 8 -8 8 5 0 9 5 17 11 17 6 0 9 -7 5 -15 -3 -9 3 -19 14 -25 14 -7
20 -7 20 0 0 5 -7 10 -16 10 -13 0 -14 3 -5 14 9 11 8 15 -5 20 -15 6 -15 8
-1 24 15 16 15 20 1 40 -14 20 -14 22 4 22 15 0 19 -5 15 -19 -6 -22 16 -39
27 -21 5 9 9 9 14 1 4 -6 4 -11 0 -11 -3 0 0 -7 7 -16 12 -15 11 -16 -11 -9
-24 7 -24 7 -5 -8 11 -9 16 -19 12 -23 -4 -5 -12 -2 -16 5 -6 9 -11 10 -15 2
-4 -6 -3 -11 2 -11 6 0 8 -9 5 -21 -4 -12 0 -25 8 -30 12 -7 12 -9 -1 -9 -13
0 -13 -1 0 -10 9 -6 11 -10 3 -10 -7 0 -10 -7 -7 -15 9 -23 44 -19 44 5 0 11
4 20 8 20 17 0 21 -13 10 -34 -7 -11 -12 -24 -11 -27 2 -7 -37 -4 -84 5 -18 3
-33 2 -33 -2 0 -15 13 -22 24 -13 7 6 15 1 23 -15 8 -18 8 -24 0 -24 -6 0 -1
-7 11 -16 27 -19 20 -34 -16 -33 -17 1 -21 3 -9 6 9 2 17 9 17 14 0 6 -7 6
-19 0 -10 -6 -22 -7 -27 -3 -5 4 -6 3 -2 -2 4 -5 3 -15 -3 -22 -9 -11 -3 -12
28 -9 21 2 40 5 43 6 3 1 8 1 11 1 12 -2 51 80 47 96 -3 10 1 23 9 30 15 14
18 56 4 47 -6 -3 -14 2 -19 11 -8 15 -11 12 -17 -14 -8 -37 -28 -44 -21 -7 3
13 0 27 -5 30 -12 8 -12 35 0 35 5 0 12 -8 14 -17 4 -14 5 -12 6 5 1 23 25 30
37 10 5 -8 1 -9 -12 -5 -18 7 -18 6 -2 -6 10 -8 15 -17 11 -20 -3 -4 -1 -7 6
-7 10 0 11 40 1 90 0 3 -7 -4 -15 -14 -8 -11 -18 -17 -22 -13 -3 4 2 16 11 26
20 22 12 46 -11 36 -13 -5 -14 -3 -3 10 10 13 11 18 1 28 -10 9 -12 9 -9 -2 2
-8 -5 -17 -14 -19 -10 -2 -18 2 -18 8 0 6 5 8 10 5 6 -3 10 -2 10 2 0 10 -61
35 -69 28 -2 -3 2 -5 10 -5 12 0 12 -2 -1 -10 -9 -5 -19 -5 -27 2 -9 7 -13 7
-13 0 0 -6 -6 -9 -14 -6 -8 3 -13 14 -11 25 2 10 2 19 -1 19 -12 0 -47 -40
-41 -47 4 -3 7 -1 7 6 0 7 5 9 10 6 6 -4 8 -11 5 -16 -6 -9 8 -13 34 -9 9 1
12 -4 7 -15 -3 -10 -2 -14 5 -10 6 4 8 13 5 21 -3 8 -1 14 4 14 6 0 10 -12 11
-27 0 -25 1 -26 9 -8 7 16 9 17 9 3 1 -20 -15 -33 -24 -19 -6 11 -41 6 -59 -7
-6 -5 -20 -6 -31 -1 -13 5 -15 8 -5 8 13 1 13 2 0 11 -13 8 -13 10 2 10 9 0
20 5 24 12 5 7 0 9 -14 6 -12 -3 -22 -2 -24 4 -2 5 -11 6 -21 3 -9 -4 -14 -12
-10 -18 3 -6 1 -7 -5 -3 -19 11 -15 36 5 29 12 -5 14 -3 8 7 -5 9 -4 11 3 6
23 -14 33 6 12 24 -20 17 -28 36 -11 26 5 -4 12 0 15 6 3 7 4 4 3 -7 -1 -14 5
-21 19 -23 13 -2 21 3 21 13 0 18 -13 20 -21 3 -4 -7 -4 -3 -2 9 4 25 -16 37
-34 20 -10 -9 -11 -9 -8 3 3 9 15 14 29 12 19 -2 21 0 9 8 -13 8 -12 10 3 10
9 0 17 -6 17 -14 0 -8 4 -18 10 -21 6 -4 7 1 3 11 -5 13 -3 16 10 11 9 -3 17
-2 17 3 0 10 -59 25 -67 16 -3 -3 -13 -2 -22 2 -9 5 -27 6 -41 4z m-6 -56 c-3
-14 -11 -26 -16 -26 -6 0 -7 7 -4 16 3 9 6 25 6 37 0 15 3 18 11 10 5 -5 7
-22 3 -37z m-29 -96 c2 0 10 7 18 15 13 12 14 10 13 -15 0 -15 -5 -28 -10 -27
-5 1 -11 -4 -13 -10 -7 -20 25 -15 36 5 8 14 12 15 22 5 11 -11 9 -13 -6 -13
-17 0 -17 -1 -1 -19 17 -18 13 -51 -6 -51 -6 0 -8 7 -4 15 9 24 -3 43 -25 38
-10 -3 -25 0 -33 6 -11 9 -15 9 -19 -1 -4 -10 -6 -10 -6 0 -1 7 10 17 24 22
14 5 25 14 25 19 0 6 -6 8 -13 5 -13 -5 -47 44 -47 68 1 7 10 -4 21 -24 11
-21 21 -38 24 -38z m9 64 c9 -3 16 -10 16 -16 0 -5 -4 -6 -10 -3 -5 3 -10 -2
-11 -12 0 -16 -1 -16 -9 2 -15 36 -13 40 14 29z m-44 -63 c0 -4 -6 -8 -13 -8
-8 0 -14 6 -14 13 0 7 6 10 14 7 7 -3 13 -8 13 -12z m-37 -11 c18 -21 23 -50
8 -50 -5 0 -14 7 -21 15 -13 15 -30 12 -30 -6 0 -6 5 -7 10 -4 6 3 13 0 16 -8
3 -8 17 -13 34 -12 17 1 30 -2 30 -7 0 -4 -2 -8 -4 -8 -2 0 -12 -3 -22 -7 -12
-4 -15 -3 -10 5 4 7 2 12 -3 12 -6 0 -11 -8 -12 -17 0 -15 -2 -14 -11 4 -13
28 -47 40 -59 22 -7 -11 -9 -10 -9 4 0 9 -6 17 -12 18 -10 0 -10 2 0 6 6 2 12
11 12 19 0 8 7 14 15 14 18 0 19 -11 3 -30 -7 -8 -3 -6 9 4 12 10 22 21 21 25
-3 27 12 28 35 1z m392 -20 c-3 -5 -12 -10 -18 -10 -7 0 -6 4 3 10 19 12 23
12 15 0z m-131 -16 c14 -5 12 -10 -9 -30 -26 -24 -49 -34 -27 -12 7 7 12 20
12 30 0 20 1 21 24 12z m-74 -15 c0 -5 -5 -7 -12 -3 -6 4 -9 3 -5 -2 3 -5 -1
-20 -9 -34 -13 -25 -13 -25 -9 10 2 19 4 36 4 38 3 8 31 0 31 -9z m26 -18
c-13 -15 -14 -20 -4 -24 7 -2 10 -8 5 -13 -4 -4 -15 0 -24 9 -15 15 -15 17 8
36 29 23 39 18 15 -8z m-129 -3 c-2 -7 2 -21 11 -30 8 -10 10 -18 5 -18 -6 0
-18 12 -28 26 -9 15 -12 23 -6 20 6 -4 11 -2 11 3 0 6 3 11 6 11 3 0 4 -6 1
-12z m-212 -18 c3 -5 1 -10 -4 -10 -6 0 -11 5 -11 10 0 6 2 10 4 10 3 0 8 -4
11 -10z m188 -30 c-3 -11 -10 -23 -16 -27 -6 -4 -8 2 -5 15 4 12 2 20 -2 17
-5 -3 -12 0 -16 6 -4 7 -3 9 4 5 6 -3 13 -2 17 4 10 17 24 2 18 -20z m131 8
c11 -11 11 -17 -2 -35 -11 -19 -12 -26 -2 -38 7 -8 16 -12 21 -9 5 3 9 1 9 -5
0 -5 -4 -12 -9 -15 -12 -8 -44 42 -37 59 3 8 1 17 -5 20 -5 4 -8 3 -7 -2 5
-18 -12 -74 -22 -68 -5 3 -10 1 -10 -5 0 -7 -7 -9 -16 -6 -8 3 -12 2 -9 -4 3
-6 13 -10 21 -10 8 0 14 -4 14 -10 0 -16 -15 -12 -34 9 -16 18 -15 20 16 40
18 11 29 21 25 21 -5 0 -5 6 0 13 4 6 8 14 9 17 2 12 17 40 20 40 3 0 11 -6
18 -12z m-274 -88 c0 -5 -5 -10 -11 -10 -5 0 -7 5 -4 10 3 6 8 10 11 10 2 0 4
-4 4 -10z m340 0 c0 -5 -5 -10 -11 -10 -5 0 -7 5 -4 10 3 6 8 10 11 10 2 0 4
-4 4 -10z m100 -40 c0 -5 -7 -7 -15 -4 -8 4 -12 10 -9 15 6 11 24 2 24 -11z
m35 0 c4 -6 3 -10 -2 -9 -20 3 -27 -2 -13 -11 12 -8 9 -10 -12 -10 -27 0 -27
1 -10 19 20 23 28 25 37 11z"/>
<path d="M6685 4680 c3 -5 11 -10 16 -10 6 0 7 5 4 10 -3 6 -11 10 -16 10 -6
0 -7 -4 -4 -10z"/>
<path d="M6690 4819 c0 -5 -4 -8 -9 -5 -4 3 -16 -3 -26 -14 -18 -20 -18 -21 1
-35 10 -8 26 -14 34 -14 10 0 11 2 3 6 -7 2 -13 9 -13 14 0 6 5 7 10 4 6 -3
11 -3 11 2 6 35 5 53 -2 53 -5 0 -9 -5 -9 -11z m10 -23 c0 -2 -9 -6 -20 -9
-11 -3 -20 -1 -20 4 0 5 9 9 20 9 11 0 20 -2 20 -4z"/>
<path d="M6925 4801 c-3 -5 4 -12 15 -16 11 -3 20 -10 20 -15 0 -5 7 -7 15 -4
12 5 10 10 -9 25 -27 22 -32 23 -41 10z"/>
<path d="M7020 4775 c0 -10 29 -24 34 -17 3 6 -3 12 -14 15 -11 3 -20 4 -20 2z"/>
<path d="M6915 4702 c-6 -4 -11 -13 -13 -21 -3 -12 -1 -12 15 -1 10 8 19 15
21 16 2 1 -1 4 -5 7 -5 3 -13 3 -18 -1z"/>
<path d="M6970 4590 c0 -5 5 -10 10 -10 6 0 10 5 10 10 0 6 -4 10 -10 10 -5 0
-10 -4 -10 -10z"/>
<path d="M6957 4569 c7 -7 15 -10 18 -7 3 3 -2 9 -12 12 -14 6 -15 5 -6 -5z"/>
<path d="M7015 4550 c3 -5 8 -10 11 -10 2 0 4 5 4 10 0 6 -5 10 -11 10 -5 0
-7 -4 -4 -10z"/>
<path d="M6775 4530 c3 -5 13 -10 21 -10 8 0 14 5 14 10 0 6 -9 10 -21 10 -11
0 -17 -4 -14 -10z"/>
<path d="M7000 4531 c0 -7 -4 -9 -10 -6 -5 3 -10 1 -10 -4 0 -6 4 -11 9 -11
13 0 25 20 17 27 -3 4 -6 1 -6 -6z"/>
<path d="M7020 4521 c0 -5 5 -13 10 -16 6 -3 10 -2 10 4 0 5 -4 13 -10 16 -5
3 -10 2 -10 -4z"/>
<path d="M6694 4458 c2 -7 8 -13 15 -13 6 0 15 -6 20 -13 7 -11 9 -10 14 3 7
17 -15 31 -32 21 -5 -3 -12 -1 -14 4 -3 6 -4 5 -3 -2z"/>
<path d="M6865 4429 c-4 -17 -4 -33 -1 -36 3 -4 6 3 6 15 0 12 5 22 10 22 6 0
10 7 10 15 0 27 -18 16 -25 -16z"/>
<path d="M6763 4433 c1 -12 5 -19 9 -17 4 3 8 -2 8 -12 0 -14 2 -15 17 -3 9 8
26 13 37 11 19 -2 18 -1 -4 12 -18 11 -27 11 -32 3 -6 -9 -8 -8 -8 1 0 7 -4
11 -9 8 -5 -4 -11 0 -14 6 -3 7 -4 3 -4 -9z"/>
<path d="M6976 4433 c-6 -14 -5 -15 5 -6 7 7 10 15 7 18 -3 3 -9 -2 -12 -12z"/>
<path d="M6580 4420 c0 -5 7 -10 16 -10 8 0 12 5 9 10 -3 6 -10 10 -16 10 -5
0 -9 -4 -9 -10z"/>
<path d="M6684 4409 c-3 -5 3 -9 13 -10 10 0 29 -14 43 -32 20 -25 21 -30 7
-24 -10 4 -21 7 -23 7 -3 0 -2 5 2 12 4 7 3 8 -4 4 -17 -10 -15 -45 3 -63 19
-18 45 -2 45 29 0 11 8 27 18 36 10 10 13 14 7 10 -6 -4 -19 2 -28 12 -9 11
-22 20 -29 21 -7 0 -21 2 -30 4 -10 2 -20 -1 -24 -6z m85 -43 c-3 -3 -11 5
-18 17 -13 21 -12 21 5 5 10 -10 16 -20 13 -22z m-13 -53 c-8 -8 -36 5 -36 17
0 7 6 7 21 0 11 -7 18 -14 15 -17z"/>
<path d="M6904 4403 c0 -10 7 -24 14 -31 7 -8 10 -18 7 -23 -4 -5 1 -6 9 -3
14 5 14 8 0 21 -12 12 -12 18 -2 32 7 9 8 13 4 9 -5 -4 -15 -3 -22 2 -9 8 -12
6 -10 -7z"/>
<path d="M6881 4394 c0 -11 3 -14 6 -6 3 7 2 16 -1 19 -3 4 -6 -2 -5 -13z"/>
<path d="M6823 4384 c0 -11 5 -22 11 -26 6 -4 -1 -8 -16 -8 -18 0 -28 -5 -28
-15 0 -8 5 -15 11 -15 5 0 8 4 4 9 -3 5 5 11 17 13 27 4 32 18 15 42 -13 18
-14 18 -14 0z"/>
<path d="M6953 4393 c-15 -5 -17 -23 -4 -23 5 0 11 7 15 15 3 8 4 15 3 14 -1
0 -8 -3 -14 -6z"/>
<path d="M6666 4374 c-9 -24 -7 -27 9 -10 17 17 19 26 6 26 -5 0 -12 -7 -15
-16z"/>
<path d="M6860 4377 c0 -4 9 -16 19 -26 17 -17 20 -17 25 -4 9 22 7 26 -8 20
-7 -3 -19 0 -25 6 -6 6 -11 8 -11 4z"/>
<path d="M7020 4358 c0 -14 15 -16 27 -3 10 11 9 13 -7 12 -11 -1 -20 -5 -20
-9z"/>
<path d="M6681 4341 c-8 -6 -9 -11 -3 -15 6 -3 14 -1 17 5 9 14 2 20 -14 10z"/>
<path d="M6856 4342 c-7 -12 12 -38 21 -28 4 5 2 11 -5 13 -6 3 -10 9 -6 14 3
5 3 9 0 9 -3 0 -7 -4 -10 -8z"/>
<path d="M6985 4334 c13 -14 19 -14 28 -4 9 10 9 11 0 6 -6 -3 -14 -2 -18 4
-3 5 -11 10 -16 10 -6 0 -3 -7 6 -16z"/>
<path d="M6956 4313 c-6 -14 -5 -15 5 -6 7 7 10 15 7 18 -3 3 -9 -2 -12 -12z"/>
<path d="M6883 4303 c-7 -2 -13 -12 -12 -21 0 -10 3 -12 5 -5 3 7 11 11 17 9
7 -1 9 -1 4 1 -4 3 -5 9 -1 14 6 10 5 10 -13 2z"/>
<path d="M6760 4286 c0 -2 9 -6 20 -9 11 -3 18 -1 14 4 -5 9 -34 13 -34 5z"/>
<path d="M6810 4280 c0 -5 5 -10 11 -10 5 0 7 5 4 10 -3 6 -8 10 -11 10 -2 0
-4 -4 -4 -10z"/>
<path d="M5248 3633 c7 -3 16 -2 19 1 4 3 -2 6 -13 5 -11 0 -14 -3 -6 -6z"/>
<path d="M8180 1955 l0 -465 85 0 85 0 0 123 c0 107 2 126 18 140 10 10 21 17
24 17 3 0 50 -63 104 -140 l99 -140 98 0 98 0 -16 28 c-9 15 -68 101 -131 191
-63 89 -114 166 -114 170 0 4 54 70 120 146 l120 140 -87 3 -88 3 -50 -53
c-28 -29 -83 -89 -122 -133 l-73 -80 0 258 0 257 -85 0 -85 0 0 -465z"/>
<path d="M1470 1940 l0 -450 310 0 310 0 0 75 0 75 -225 0 -225 0 0 115 0 116
185 -3 185 -3 0 73 0 72 -185 0 -185 0 0 110 0 110 210 0 210 0 0 79 0 80
-295 0 -295 1 0 -450z"/>
<path d="M5560 2309 l0 -80 140 3 140 3 0 -372 0 -373 90 0 90 0 0 373 0 372
135 -3 135 -3 0 81 0 81 -365 -1 -365 -2 0 -79z"/>
<path d="M2475 2165 c-22 -8 -55 -31 -72 -51 l-33 -37 0 46 0 47 -85 0 -85 0
0 -340 0 -340 84 0 84 0 4 223 c3 246 6 258 71 297 36 23 112 27 151 8 57 -25
61 -42 64 -295 l3 -233 82 0 82 0 -5 267 c-5 259 -6 269 -29 310 -28 48 -65
78 -123 99 -51 18 -141 17 -193 -1z"/>
<path d="M3155 2166 c-61 -19 -96 -41 -137 -83 -82 -85 -116 -227 -84 -353 42
-162 157 -252 326 -253 96 -1 164 22 225 75 42 37 85 102 85 128 0 6 -31 10
-80 10 -62 0 -82 -3 -86 -15 -8 -21 -63 -52 -105 -60 -80 -15 -175 39 -197
113 -7 22 -12 44 -12 51 0 8 71 11 251 11 l251 0 -7 68 c-22 206 -142 323
-329 321 -34 0 -79 -6 -101 -13z m192 -146 c31 -18 53 -50 67 -97 l7 -23 -166
0 -166 0 6 23 c10 34 38 70 75 95 43 29 131 31 177 2z"/>
<path d="M3942 2159 c-40 -20 -82 -65 -82 -88 0 -6 -3 -11 -7 -11 -5 0 -6 25
-5 55 l4 55 -86 0 -86 0 0 -340 0 -340 85 0 85 0 0 215 0 214 31 36 c35 40 90
59 156 53 l43 -3 0 87 0 88 -47 0 c-29 0 -65 -9 -91 -21z"/>
<path d="M4321 2162 c-59 -23 -127 -90 -159 -160 -24 -51 -27 -69 -27 -162 0
-121 16 -168 81 -240 54 -60 122 -90 205 -90 79 0 121 13 171 51 20 16 39 29
41 29 2 0 3 -28 0 -62 -5 -78 -30 -121 -83 -142 -79 -31 -202 -8 -230 43 -9
19 -20 21 -90 21 -91 0 -94 -4 -61 -76 25 -54 90 -108 159 -130 74 -24 208
-24 279 0 65 22 134 82 165 144 23 46 23 53 26 415 l3 367 -80 0 -81 0 0 -41
0 -41 -41 33 c-22 17 -57 38 -77 45 -51 18 -148 16 -201 -4z m229 -150 c53
-29 84 -92 84 -172 0 -107 -44 -170 -131 -186 -153 -29 -254 158 -167 306 38
66 141 90 214 52z"/>
<path d="M6572 2159 c-40 -20 -82 -65 -82 -88 0 -6 -3 -11 -7 -11 -5 0 -6 25
-5 55 l4 55 -86 0 -86 0 0 -340 0 -340 85 0 85 0 0 210 c0 138 4 218 12 235
20 45 74 70 150 70 l68 0 0 88 0 87 -47 0 c-29 0 -65 -9 -91 -21z"/>
<path d="M6950 2171 c-90 -29 -161 -92 -179 -158 -18 -63 -18 -63 67 -63 77 0
78 0 89 30 15 41 70 64 141 58 69 -6 93 -29 100 -96 l4 -50 -103 -7 c-130 -8
-207 -29 -253 -67 -50 -41 -69 -82 -68 -145 0 -69 27 -119 81 -158 37 -26 53
-30 121 -33 68 -4 87 0 134 21 30 14 61 35 68 46 19 31 28 25 28 -19 l0 -40
81 0 80 0 -3 258 c-3 241 -4 260 -25 297 -48 89 -121 128 -248 132 -49 1 -101
-1 -115 -6z m220 -428 c0 -80 -64 -133 -159 -133 -42 0 -57 5 -76 25 -29 28
-32 61 -9 94 26 36 71 50 162 51 l82 0 0 -37z"/>
<path d="M7635 2156 c-76 -32 -145 -104 -176 -183 -31 -80 -31 -215 -1 -294
58 -147 207 -228 370 -199 36 6 82 20 102 30 51 26 125 111 143 165 l16 45
-81 0 -80 0 -37 -41 c-27 -31 -47 -43 -76 -48 -131 -22 -210 54 -208 201 2
122 52 188 150 196 63 5 104 -10 138 -49 22 -28 28 -29 104 -29 45 0 81 2 81
4 0 19 -44 100 -71 130 -54 62 -119 89 -224 93 -78 3 -98 0 -150 -21z"/>
<path d="M4873 2158 c3 -7 67 -160 141 -341 l136 -327 -20 -39 c-28 -56 -54
-71 -122 -71 l-58 0 0 -74 0 -74 48 -7 c119 -16 231 44 282 152 19 41 300 780
300 789 0 3 -41 3 -92 2 l-91 -3 -44 -130 c-24 -71 -59 -179 -78 -240 -18 -60
-36 -103 -38 -95 -3 8 -43 117 -88 243 l-83 227 -99 0 c-76 0 -98 -3 -94 -12z"/>
</g>
</svg>
