
<svg width="600" height="400" viewBox="0 0 600 400" fill="none" xmlns="http://www.w3.org/2000/svg">
  <defs>
    <linearGradient id="skyGradient" x1="0%" y1="0%" x2="0%" y2="100%">
      <stop offset="0%" style="stop-color:#e0f2fe;stop-opacity:1" />
      <stop offset="100%" style="stop-color:#dbeafe;stop-opacity:1" />
    </linearGradient>
    <linearGradient id="panelGradient" x1="0%" y1="0%" x2="100%" y2="100%">
      <stop offset="0%" style="stop-color:#1e3a8a;stop-opacity:1" />
      <stop offset="100%" style="stop-color:#3b82f6;stop-opacity:1" />
    </linearGradient>
    <linearGradient id="windGradient" x1="0%" y1="0%" x2="0%" y2="100%">
      <stop offset="0%" style="stop-color:#f0f9ff;stop-opacity:1" />
      <stop offset="100%" style="stop-color:#dbeafe;stop-opacity:1" />
    </linearGradient>
  </defs>
  
  <!-- Fondo cielo -->
  <rect width="600" height="400" fill="url(#skyGradient)"/>
  
  <!-- Sol -->
  <circle cx="500" cy="80" r="40" fill="#fbbf24" opacity="0.8"/>
  <circle cx="500" cy="80" r="50" fill="#fbbf24" opacity="0.3"/>
  <circle cx="500" cy="80" r="60" fill="#fbbf24" opacity="0.1"/>
  
  <!-- Nubes -->
  <ellipse cx="120" cy="60" rx="40" ry="20" fill="#ffffff" opacity="0.7"/>
  <ellipse cx="150" cy="55" rx="35" ry="18" fill="#ffffff" opacity="0.7"/>
  <ellipse cx="350" cy="90" rx="45" ry="22" fill="#ffffff" opacity="0.6"/>
  
  <!-- Suelo/tierra -->
  <path d="M0 320 Q150 310 300 320 T600 320 L600 400 L0 400 Z" fill="#10b981" opacity="0.3"/>
  <path d="M0 340 Q150 335 300 340 T600 340 L600 400 L0 400 Z" fill="#10b981" opacity="0.5"/>
  
  <!-- Panel solar (izquierda) -->
  <g transform="translate(80, 200)">
    <!-- Soporte -->
    <rect x="55" y="110" width="8" height="50" fill="#64748b"/>
    <polygon points="20,160 100,160 110,170 10,170" fill="#64748b"/>
    
    <!-- Panel -->
    <rect x="10" y="20" width="100" height="90" fill="url(#panelGradient)" stroke="#1e40af" stroke-width="3"/>
    <!-- Celdas -->
    <rect x="15" y="25" width="25" height="25" fill="#1e40af" opacity="0.3"/>
    <rect x="45" y="25" width="25" height="25" fill="#1e40af" opacity="0.4"/>
    <rect x="75" y="25" width="25" height="25" fill="#1e40af" opacity="0.3"/>
    <rect x="15" y="55" width="25" height="25" fill="#1e40af" opacity="0.4"/>
    <rect x="45" y="55" width="25" height="25" fill="#1e40af" opacity="0.3"/>
    <rect x="75" y="55" width="25" height="25" fill="#1e40af" opacity="0.4"/>
    <rect x="15" y="85" width="25" height="20" fill="#1e40af" opacity="0.3"/>
    <rect x="45" y="85" width="25" height="20" fill="#1e40af" opacity="0.4"/>
    <rect x="75" y="85" width="25" height="20" fill="#1e40af" opacity="0.3"/>
  </g>
  
  <!-- Turbina eólica (centro) -->
  <g transform="translate(300, 150)">
    <!-- Torre -->
    <path d="M-5 170 L-8 280 L8 280 L5 170 Z" fill="#e2e8f0"/>
    <rect x="-8" y="280" width="16" height="10" fill="#94a3b8"/>
    
    <!-- Nacela -->
    <ellipse cx="0" cy="170" rx="15" ry="8" fill="#f1f5f9"/>
    
    <!-- Aspas -->
    <g transform="rotate(45)">
      <path d="M0 170 L5 90 L0 85 L-5 90 Z" fill="#ffffff" stroke="#cbd5e1" stroke-width="1"/>
    </g>
    <g transform="rotate(165)">
      <path d="M0 170 L5 90 L0 85 L-5 90 Z" fill="#ffffff" stroke="#cbd5e1" stroke-width="1"/>
    </g>
    <g transform="rotate(285)">
      <path d="M0 170 L5 90 L0 85 L-5 90 Z" fill="#ffffff" stroke="#cbd5e1" stroke-width="1"/>
    </g>
    
    <!-- Centro -->
    <circle cx="0" cy="170" r="8" fill="#94a3b8"/>
  </g>
  
  <!-- Casa con panel solar (derecha) -->
  <g transform="translate(450, 240)">
    <!-- Casa -->
    <rect x="0" y="40" width="80" height="60" fill="#f8fafc" stroke="#cbd5e1" stroke-width="2"/>
    <!-- Techo -->
    <polygon points="-10,40 40,10 90,40" fill="#ef4444"/>
    <!-- Ventanas -->
    <rect x="10" y="55" width="15" height="15" fill="#93c5fd"/>
    <rect x="55" y="55" width="15" height="15" fill="#93c5fd"/>
    <!-- Puerta -->
    <rect x="32" y="70" width="16" height="30" fill="#7c3aed"/>
    
    <!-- Panel en techo -->
    <rect x="10" y="15" width="30" height="20" fill="url(#panelGradient)" stroke="#1e40af" stroke-width="1"/>
    <line x1="12" y1="20" x2="12" y2="30" stroke="#1e40af" stroke-width="0.5"/>
    <line x1="20" y1="20" x2="20" y2="30" stroke="#1e40af" stroke-width="0.5"/>
    <line x1="28" y1="20" x2="28" y2="30" stroke="#1e40af" stroke-width="0.5"/>
    <line x1="36" y1="20" x2="36" y2="30" stroke="#1e40af" stroke-width="0.5"/>
  </g>
  
  <!-- Líneas de energía -->
  <path d="M180 280 Q240 270 300 250" stroke="#10b981" stroke-width="3" stroke-dasharray="5,5" fill="none" opacity="0.6"/>
  <circle cx="180" cy="280" r="5" fill="#10b981"/>
  <circle cx="300" cy="250" r="5" fill="#10b981"/>
  
  <path d="M300 250 Q380 260 450 270" stroke="#3b82f6" stroke-width="3" stroke-dasharray="5,5" fill="none" opacity="0.6"/>
  <circle cx="450" cy="270" r="5" fill="#3b82f6"/>
  
  <!-- Partículas de energía -->
  <circle cx="220" cy="265" r="3" fill="#10b981" opacity="0.8">
    <animate attributeName="opacity" values="0.3;1;0.3" dur="2s" repeatCount="indefinite"/>
  </circle>
  <circle cx="260" cy="260" r="3" fill="#10b981" opacity="0.6">
    <animate attributeName="opacity" values="0.2;0.9;0.2" dur="2.5s" repeatCount="indefinite"/>
  </circle>
  <circle cx="350" cy="258" r="3" fill="#3b82f6" opacity="0.7">
    <animate attributeName="opacity" values="0.3;1;0.3" dur="1.8s" repeatCount="indefinite"/>
  </circle>
  <circle cx="400" cy="265" r="3" fill="#3b82f6" opacity="0.5">
    <animate attributeName="opacity" values="0.2;0.8;0.2" dur="2.2s" repeatCount="indefinite"/>
  </circle>
</svg>
